<svg width="233" height="89" viewBox="0 0 233 89" fill="none" xmlns="http://www.w3.org/2000/svg">
<path d="M14.0763 30.9831L9.64476 26.8599C9.64476 26.8599 9.46125 24.8088 11.0313 24.1552C12.8189 23.4112 14.5385 24.2873 14.5385 24.2873L17.2505 29.6273L14.0763 30.9831ZM72.5226 31.1222L68.6892 28.0141L71.2652 24.1621C71.2652 24.1621 72.5974 23.0566 74.9016 24.2316C76.6619 25.1286 77.0969 26.8669 76.893 27.4023C76.6959 27.9377 72.5226 31.1222 72.5226 31.1222Z" fill="#B40E1C"/>
<path d="M15.4629 30.2391L13.3219 29.6481C13.3219 29.6481 13.0772 28.6121 13.5394 27.6943C14.022 26.7417 14.9667 26.846 14.9667 26.846C14.9667 26.846 12.6898 25.7127 13.6821 22.9384C14.6745 20.1641 17.7127 20.7759 17.7127 20.7759C17.7127 20.7759 17.6447 19.0168 19.038 17.9321C20.4246 16.8474 21.4849 17.6609 21.4849 17.6609C21.4849 17.6609 20.411 14.1496 23.0686 12.5226C25.3387 11.1319 26.902 12.453 26.902 12.453C26.902 12.453 27.8196 10.1029 30.3345 10.0542C32.2172 10.0194 32.7881 10.7634 32.7881 10.7634C32.7881 10.7634 33.4474 9.40757 34.5077 8.80265C35.568 8.19077 36.2002 8.28116 36.2002 8.28116C36.2002 8.28116 35.7176 6.59851 36.2273 5.22179C37.1245 2.78819 39.5986 2.24585 41.4473 2.71866C43.9826 3.3653 43.6699 5.15921 43.6699 5.15921C43.6699 5.15921 44.9545 4.27616 46.144 4.41523C47.3334 4.54733 47.9587 5.3539 47.9587 5.3539C47.9587 5.3539 48.788 2.86468 51.5611 2.86468C54.341 2.86468 55.1295 4.55429 55.2654 5.84062C55.4013 7.12694 54.5653 8.64273 54.5653 8.64273C54.5653 8.64273 54.9663 8.80265 55.0887 9.77609C55.1838 10.5131 54.9052 11.1667 54.9052 11.1667C54.9052 11.1667 56.183 10.1376 58.7318 11.1667C62.9595 12.8702 62.0759 17.4732 62.0759 17.4732C62.0759 17.4732 63.2993 17.3272 64.2237 17.7305C65.284 18.1963 65.7734 18.9612 65.7734 18.9612C65.7734 18.9612 66.0112 16.9448 68.4853 16.9309C71.0681 16.9169 73.1819 21.8676 72.7198 23.286C72.2576 24.7044 71.0002 25.0452 71.0002 25.0452C71.0002 25.0452 72.1488 25.3789 72.577 26.8043C73.0868 28.4869 72.6654 30.2739 72.6654 30.2739C72.6654 30.2739 54.7352 41.4684 54.5381 41.3989C54.341 41.3294 32.122 43.0885 32.122 43.0885L15.4629 30.2391Z" fill="#FFB91F"/>
<path d="M23.6803 33.7018C23.6803 33.5558 23.8842 32.9509 24.2852 32.6867C24.7814 32.3599 25.5223 32.3251 25.5223 32.3251C25.5223 32.3251 24.7066 31.9288 24.2512 30.6216C23.9522 29.7733 24.3192 28.8555 24.3192 28.8555C24.3192 28.8555 22.1646 28.9598 21.6684 27.291C21.1723 25.6223 21.9539 25.4067 21.9539 25.4067C21.9539 25.4067 21.0907 20.6717 24.7134 20.5882C29.6684 20.477 28.8187 26.9225 28.8187 26.9225C28.8187 26.9225 29.5256 26.9225 29.9538 27.3188C30.3752 27.7152 30.518 28.1184 30.518 28.1184C30.518 28.1184 31.4423 26.6931 33.6309 27.0338C38.7966 27.8334 36.3905 33.0065 36.3905 33.0065C36.3905 33.0065 35.4321 30.3295 33.7737 30.2183C32.1084 30.107 30.0558 31.2682 30.0558 31.2682C30.0558 31.2682 33.2027 31.6645 34.0523 33.3681C34.9019 35.0716 34.834 37.387 34.834 37.387C34.834 37.387 28.5333 39.2713 28.3905 39.0557C28.241 38.8471 23.6803 33.7018 23.6803 33.7018Z" fill="#FCE193"/>
<path d="M27.6021 28.0559C27.1467 27.8542 25.8689 29.0015 25.8417 29.8567C25.8145 30.712 26.5214 31.8036 27.3642 31.8801C28.2002 31.9566 29.0362 31.0735 29.0362 30.2183C29.0362 29.7872 28.1662 28.3062 27.6021 28.0559Z" fill="#E17A2C"/>
<path d="M31.4491 18.4606C31.4491 18.4606 28.0575 17.9599 28.1255 20.8246C28.2138 24.621 32.3939 24.0578 32.4279 24.2595C32.4619 24.4611 32.6318 25.7544 32.6318 25.7544C32.6318 25.7544 34.2834 25.5597 35.8807 26.5262C37.478 27.4927 38.1644 28.626 38.1644 28.626C38.1644 28.626 38.4907 27.0616 38.9461 26.3941C39.4015 25.7266 39.8908 25.2259 39.8908 25.2259C39.8908 25.2259 39.8908 24.3916 39.6598 23.7241C39.4966 23.2443 39.1092 22.994 39.1092 22.994C39.1092 22.994 42.7795 21.214 40.9308 18.2589C38.8441 14.9284 35.5205 18.0225 35.5205 18.0225C35.5205 18.0225 34.2155 16.0895 32.591 16.5554C30.9598 17.0213 31.4491 18.4606 31.4491 18.4606ZM39.7889 30.9553C39.7889 30.9553 38.8101 27.5205 40.6385 26.554C42.4669 25.5875 43.6699 26.6861 43.7311 26.4845C43.7923 26.2828 46.6333 23.1817 49.0734 23.2513C52.6894 23.3486 53.5186 25.6988 53.6001 25.9491C54.0012 27.145 53.471 29.0849 53.471 29.0849C53.471 29.0849 54.8372 26.9156 56.7947 27.1172C58.7522 27.3188 58.9697 28.9181 58.9697 28.9181C58.9697 28.9181 61.1311 30.2878 61.0291 31.5881C60.934 32.8883 59.561 33.8548 59.561 33.8548L56.2373 37.1853L52.6554 35.9199C52.6554 35.9199 52.166 34.2511 52.166 33.222C52.166 32.186 52.2612 31.3586 52.2612 31.3586C52.2612 31.3586 51.2824 31.894 50.6027 32.0887C49.9162 32.2903 48.4821 32.3251 48.4821 32.3251C48.4821 32.3251 48.4277 31.4838 47.048 30.5242C44.0233 28.4244 39.7889 30.9553 39.7889 30.9553Z" fill="#FCE193"/>
<path d="M41.223 35.5861C41.223 35.5861 40.1152 31.4698 43.3097 31.3864C47.1227 31.2891 47.6733 34.7517 47.8092 36.6847C47.9384 38.6176 42.8883 41.5866 42.6912 41.4823C42.4941 41.385 37.7634 38.4091 37.7634 38.4091C37.7634 38.4091 37.4032 37.3383 38.1984 36.3857C39.0277 35.3775 41.223 35.5861 41.223 35.5861ZM62.4361 33.6879C62.4361 33.6879 61.3282 32.7562 61.6544 30.9901C61.9807 29.224 63.3129 29.1266 63.3129 29.1266C63.3129 29.1266 62.3002 27.5274 62.7895 26.4914C63.2789 25.4554 64.0605 25.2259 66.5686 25.2607C69.0766 25.2955 70.3477 25.9908 71.1633 26.8947C71.8973 27.7012 71.4216 30.1626 71.4216 30.1626C71.4216 30.1626 67.7105 34.7309 67.2823 34.6266C66.8609 34.5223 62.4361 33.6879 62.4361 33.6879ZM52.0369 21.7911C52.0369 21.7911 53.3419 22.6255 53.7633 23.2582C54.1847 23.8909 54.742 25.0938 54.742 25.0938C54.742 25.0938 55.0139 21.8398 56.3257 20.2544C57.7598 18.5231 59.629 18.5926 59.663 18.5926C60.0164 18.5926 60.6077 15.8948 59.2416 14.4625C57.5288 12.6686 54.5857 13.2944 54.6129 13.5655C54.6401 13.8367 55.6868 15.13 55.0071 18.1337C54.375 20.8733 52.0369 21.7911 52.0369 21.7911ZM42.9155 22.4238C43.4388 22.695 44.37 21.798 45.1652 21.4226C46.076 20.9915 47.2519 20.8246 47.2859 20.3587C47.3198 19.8929 46.0148 18.2241 44.1253 19.1559C42.2358 20.0876 42.3309 22.1248 42.9155 22.4238ZM14.8308 24.0369C14.6677 25.7335 16.3601 26.2619 16.3601 26.2619C16.3601 26.2619 16.1494 27.8264 16.7543 28.7303C17.2437 29.4604 18.2564 30.3643 18.6778 30.2669C19.0992 30.1696 20.4382 28.8694 20.4382 28.7651C20.4382 28.6677 20.3634 24.9339 19.5886 23.5989C18.5147 21.7216 15.123 21.0262 14.8308 24.0369ZM20.7645 21.7911C21.2198 21.7911 21.6752 20.7273 21.9403 20.324C22.1986 19.9207 23.1773 19.2601 23.1773 19.2601C23.1773 19.2601 21.6752 18.1963 20.7305 19.1628C19.7857 20.1223 20.078 21.7911 20.7645 21.7911ZM24.4076 18.7595C24.4076 18.7595 25.3184 18.6622 25.8417 18.69C26.3651 18.7248 27.2419 18.8916 27.2419 18.8916C27.2419 18.8916 27.371 18.0225 28.3158 17.3898C29.2605 16.757 30.1373 16.9587 30.1373 16.9587C30.1373 16.9587 30.3345 15.7558 31.0821 15.2273C31.8298 14.6919 32.2852 14.6919 32.2852 14.6919C32.2852 14.6919 32.9784 12.8702 31.9589 12.1888C29.0566 10.2559 27.5681 14.1357 27.072 14.2191C26.7049 14.2817 25.4271 12.9815 24.027 13.9827C21.648 15.6932 24.4076 18.7595 24.4076 18.7595ZM33.597 14.393C33.597 14.393 34.3786 14.5946 34.9631 14.9562C35.5477 15.3177 36.4312 15.9574 36.4312 15.9574L40.7337 15.8253C40.7337 15.8253 41.6784 14.5598 43.0446 13.9897C44.1593 13.5238 45.4575 13.4891 45.4575 13.4891C45.4575 13.4891 45.5798 10.235 42.9494 9.38671C39.6258 8.32288 38.5179 11.7855 38.5179 11.7855C38.5179 11.7855 37.5391 10.6591 36.3973 10.6869C33.862 10.7565 33.597 14.393 33.597 14.393Z" fill="#FCE193"/>
<path d="M38.4499 13.2249C38.0557 13.2249 35.7448 15.2552 35.6836 15.4568C35.6156 15.6584 36.2341 15.9922 36.3021 16.1869C36.3701 16.3885 40.5366 15.9227 40.7677 15.7558C40.9919 15.5889 39.3335 13.2249 38.4499 13.2249ZM33.2435 20.0876C33.2639 20.4839 35.167 23.0844 35.7516 23.1887C36.3361 23.293 38.2664 21.0888 37.7091 20.5882C37.4508 20.3518 35.5273 20.623 35.5273 20.623C35.5273 20.623 35.4933 19.1559 35.3302 18.9264C35.1602 18.69 33.2095 19.427 33.2435 20.0876Z" fill="#E17A2C"/>
<path d="M37.9673 8.69141C38.4635 8.70532 38.9121 6.82797 39.4966 6.22305C40.0812 5.61813 41.4813 5.02016 41.1551 4.08844C40.8288 3.15673 38.3208 3.42094 37.5052 4.79071C36.6012 6.31344 36.8866 8.65665 37.9673 8.69141ZM44.907 8.19079C45.0089 8.64969 46.2731 9.19204 46.4702 9.42149C46.6673 9.6579 47.5781 10.4853 47.5781 10.4853C47.5781 10.4853 49.6648 9.94993 50.9018 10.2837C52.1388 10.6174 52.7234 11.5144 53.0836 11.2849C53.4438 11.0485 53.2467 10.0542 53.0496 9.72047C52.8525 9.38672 52.4651 8.75399 52.4651 8.75399C52.4651 8.75399 54.341 5.77805 52.3971 5.28438C49.6308 4.58212 49.0734 7.45376 48.7132 7.51633C48.353 7.57891 47.3131 6.45251 46.1712 6.61938C45.0361 6.79321 44.771 7.59282 44.907 8.19079ZM46.4702 16.757C46.9324 17.807 48.3938 17.8904 48.3938 17.8904C48.3938 17.8904 49.1074 20.2266 50.5756 20.4213C52.0437 20.623 53.0088 19.0585 53.3147 17.7583C53.7089 16.0895 53.7157 12.4809 50.0862 12.5226C47.347 12.5573 46.178 16.0895 46.4702 16.757ZM60.866 28.6538C61.3214 28.6399 61.0156 25.9004 62.4565 24.7879C64.013 23.585 65.2296 23.8075 66.8269 23.9188C68.4853 24.03 69.6068 24.5584 69.9534 24.0856C70.3884 23.5016 70.6535 19.427 68.3902 19.0863C67.0512 18.8847 66.6977 20.2197 66.6977 20.2197C66.6977 20.2197 65.3316 19.9207 64.5771 21.3183C64.0606 22.2848 64.0266 22.9175 63.7955 22.987C63.6935 23.0148 60.1999 17.4941 57.4744 20.8524C54.6401 24.3498 59.8193 27.2493 59.8193 27.2493C59.8193 27.2493 59.9892 28.6886 60.866 28.6538Z" fill="#FCE193"/>
<path d="M50.5416 13.1275C50.358 13.2527 50.2833 16.4928 50.4464 16.5276C50.6095 16.5623 52.6622 17.6957 52.9545 17.3967C53.2467 17.0977 53.2467 15.5611 52.7234 14.5668C52.3971 13.9271 51.1941 12.6895 50.5416 13.1275ZM46.2052 9.05992C46.178 9.40063 46.6266 11.1945 47.1499 11.2571C48.0199 11.3684 49.624 10.4227 49.7871 10.089C49.9502 9.75524 49.658 8.78875 48.353 8.455C47.0616 8.12821 46.2391 8.59406 46.2052 9.05992ZM46.5314 29.3561C46.9868 29.8567 48.5637 28.4939 49.1346 28.7581C49.7871 29.0571 49.1346 30.7884 49.8483 30.9901C50.5619 31.1917 51.9961 28.8207 51.833 27.7916C51.765 27.3605 50.9222 26.7904 50.0114 26.4566C49.1006 26.1229 47.8636 25.8934 47.3062 26.255C46.7489 26.6166 45.7158 28.4591 46.5314 29.3561ZM65.5898 31.7549C65.5898 31.7549 65.5219 29.6203 66.0792 28.5565C66.6298 27.4927 68.0367 27.6595 68.261 27.9237C68.4853 28.188 69.2737 30.1209 69.2737 30.1209L67.6153 33.0204L65.5898 31.7549Z" fill="#E17A2C"/>
<path d="M43.0582 42.6574L36.5604 40.057L36.3769 39.7649C36.0506 39.2434 31.7686 38.5412 31.7686 38.5412L31.388 38.4647L26.0524 37.2896L25.9029 37.0254C25.5698 36.4483 21.2742 34.8838 21.2742 34.8838L17.2369 33.2151L17.1281 32.9439C16.7679 32.0609 14.0355 30.5312 13.9744 30.6563L12.7577 30.0375C13.0772 29.377 14.0899 28.2853 15.626 28.9181C16.965 29.4674 18.4943 31.3656 18.8273 32.1165L21.0227 33.2777C21.5597 32.93 22.5724 32.5824 23.959 33.076C25.9709 33.7992 26.501 35.3914 26.9156 36.052L31.3336 37.0254C31.8026 36.636 32.7949 35.9824 34.1203 36.2049C36.438 36.5943 37.0022 37.9641 37.4848 38.6594L42.5756 39.1044C43.0854 38.3882 44.3836 36.8724 46.4023 36.5874C48.2918 36.3162 49.6716 36.9837 50.2289 37.6512L55.0955 35.9755C55.5033 35.3288 56.9102 33.5002 59.1124 33.0899C61.1651 32.7075 62.7759 33.7713 63.5168 34.2511L66.7657 32.5476C67.1123 31.9496 68.2338 30.0862 69.9466 29.5508C72.0877 28.8902 73.4606 30.2739 73.5218 30.3226L72.6042 31.3517C72.577 31.3238 68.1115 33.9174 68.0979 33.9382L67.1395 35.6278L63.3877 35.8781L63.0478 35.6C63.0342 35.5861 56.1626 36.8585 56.149 36.8794L56.0198 37.1227L49.8755 39.2365L49.5764 38.9097C49.5356 38.868 43.0582 42.6574 43.0582 42.6574Z" fill="#DFDFDF"/>
<path d="M73.2159 32.3877C73.0596 32.4016 71.7818 30.5659 70.1166 31.2752C68.4513 31.9913 66.8609 34.9186 66.8609 34.9186L61.6748 35.753C61.6748 35.753 60.9748 34.3067 59.0377 34.863C57.1006 35.4192 55.3605 37.8528 55.3198 37.6929C55.279 37.533 49.6104 39.014 49.6104 39.014C49.6104 39.014 48.4889 37.7346 46.4906 38.2422C44.4244 38.7706 43.3029 41.3641 43.3029 41.3641L36.8663 40.057C36.8663 40.057 35.7652 38.1657 34.0999 37.9293C32.4347 37.6929 31.354 38.8054 31.354 38.8054L26.5486 37.6095C26.5486 37.6095 25.8145 35.5513 23.7211 34.8352C21.6277 34.119 20.6217 35.0298 20.6217 35.0298L17.5088 32.8674C17.5088 32.8674 16.5912 31.3238 14.8444 30.4895C13.1044 29.6551 12.6014 31.1152 12.6014 31.1152L23.4492 77.8055L44.2205 86.4482L64.7266 77.2631C64.7402 77.2701 73.6849 32.339 73.2159 32.3877Z" fill="white"/>
<path d="M14.0763 30.9831L14.0627 30.9344C13.8724 30.0236 13.3763 27.9585 12.2004 27.0198C10.6711 25.803 9.64477 26.853 9.64477 26.853L21.4373 77.0406L24.3192 78.167L14.0763 30.9831ZM21.7228 34.7517C21.7228 34.7517 21.5393 31.6158 19.1196 30.8719C17.1961 30.2808 17.1145 32.3042 17.1145 32.3042L26.6777 79.1613L30.3277 80.6632L21.7228 34.7517ZM31.9861 38.3743C31.9861 38.3743 31.0005 35.002 28.4925 34.7169C25.9845 34.4319 26.2359 36.5873 26.2359 36.5873L32.727 81.6853L36.3769 83.2011L31.9861 38.3743ZM39.9588 37.4217C37.2061 37.0671 36.8255 39.897 36.8255 39.897L39.6734 84.5778L44.2409 86.4551L43.4252 41.1347C43.4252 41.1347 42.8475 37.7972 39.9588 37.4217ZM55.7616 37.5955C55.7616 37.5955 55.9043 34.0494 52.8049 34.9464C49.7056 35.8364 49.3657 38.8054 49.3657 38.8054L48.5909 84.5222L52.4379 82.7769L55.7616 37.5955ZM67.2551 33.7922C67.2551 33.7922 67.1259 31.0109 64.4684 31.5741C61.6816 32.1582 61.6545 35.0298 61.6545 35.0298L56.7675 80.8718L60.4786 79.1961L67.2551 33.7922ZM74.351 27.1311C72.0673 28.2505 71.8702 31.2543 71.8702 31.2543L64.0877 77.576L67.7377 75.9212L76.9202 27.3605C76.9134 27.3605 76.3493 26.1507 74.351 27.1311Z" fill="#ED3D23"/>
<path d="M108.568 35.7273V59H103.795L94.5341 45.5682H94.3864V59H88.7614V35.7273H93.6023L102.761 49.1364H102.955V35.7273H108.568ZM120.264 59.3295C118.438 59.3295 116.863 58.9697 115.537 58.25C114.219 57.5227 113.204 56.4886 112.491 55.1477C111.787 53.7992 111.435 52.197 111.435 50.3409C111.435 48.5379 111.791 46.9621 112.503 45.6136C113.215 44.2576 114.219 43.2045 115.514 42.4545C116.81 41.697 118.336 41.3182 120.094 41.3182C121.336 41.3182 122.473 41.5114 123.503 41.8977C124.533 42.2841 125.423 42.8561 126.173 43.6136C126.923 44.3712 127.507 45.3068 127.923 46.4205C128.34 47.5265 128.548 48.7955 128.548 50.2273V51.6136H113.378V48.3864H123.378C123.37 47.7955 123.23 47.2689 122.957 46.8068C122.685 46.3447 122.31 45.9848 121.832 45.7273C121.363 45.4621 120.821 45.3295 120.207 45.3295C119.586 45.3295 119.029 45.4697 118.537 45.75C118.045 46.0227 117.654 46.3977 117.366 46.875C117.079 47.3447 116.927 47.8788 116.912 48.4773V51.7614C116.912 52.4735 117.052 53.0985 117.332 53.6364C117.613 54.1667 118.01 54.5795 118.526 54.875C119.041 55.1705 119.654 55.3182 120.366 55.3182C120.859 55.3182 121.306 55.25 121.707 55.1136C122.109 54.9773 122.454 54.7765 122.741 54.5114C123.029 54.2462 123.245 53.9205 123.389 53.5341L128.491 53.6818C128.279 54.8258 127.813 55.822 127.094 56.6705C126.382 57.5114 125.446 58.1667 124.287 58.6364C123.128 59.0985 121.787 59.3295 120.264 59.3295ZM135.864 41.5455L138.739 47.2955L141.716 41.5455H147.318L142.443 50.2727L147.5 59H141.943L138.739 53.2045L135.614 59H129.977L135.045 50.2727L130.227 41.5455H135.864ZM159.707 41.5455V45.6364H148.696V41.5455H159.707ZM151.003 37.3636H156.56V53.5114C156.56 53.8523 156.613 54.1288 156.719 54.3409C156.832 54.5455 156.995 54.6932 157.207 54.7841C157.42 54.8674 157.673 54.9091 157.969 54.9091C158.181 54.9091 158.404 54.8902 158.639 54.8523C158.882 54.8068 159.063 54.7689 159.185 54.7386L160.026 58.75C159.76 58.8258 159.385 58.9205 158.901 59.0341C158.423 59.1477 157.851 59.2197 157.185 59.25C155.882 59.3106 154.764 59.1591 153.832 58.7955C152.908 58.4242 152.2 57.8485 151.707 57.0682C151.223 56.2879 150.988 55.3068 151.003 54.125V37.3636ZM162.918 59V35.7273H178.804V40.2955H168.543V45.0682H177.793V49.6477H168.543V59H162.918ZM187.193 35.7273V59H181.636V35.7273H187.193ZM190.73 59V41.5455H196.287V59H190.73ZM193.514 39.5114C192.734 39.5114 192.063 39.2538 191.503 38.7386C190.942 38.2159 190.662 37.5871 190.662 36.8523C190.662 36.125 190.942 35.5038 191.503 34.9886C192.063 34.4659 192.734 34.2045 193.514 34.2045C194.302 34.2045 194.973 34.4659 195.526 34.9886C196.086 35.5038 196.366 36.125 196.366 36.8523C196.366 37.5871 196.086 38.2159 195.526 38.7386C194.973 39.2538 194.302 39.5114 193.514 39.5114ZM204.551 41.5455L207.426 47.2955L210.403 41.5455H216.006L211.131 50.2727L216.188 59H210.631L207.426 53.2045L204.301 59H198.665L203.733 50.2727L198.915 41.5455H204.551Z" fill="white"/>
</svg>
